<?xml version="1.0" encoding="UTF-8"?>
<!DOCTYPE svg PUBLIC "-//W3C//DTD SVG 1.1//EN" "http://www.w3.org/Graphics/SVG/1.1/DTD/svg11.dtd">
<!-- Creator: CorelDRAW 2020 (64-Bit Оценочная версия) -->
<svg xmlns="http://www.w3.org/2000/svg" xml:space="preserve" width="3.1543mm" height="4.4848mm" version="1.1" style="shape-rendering:geometricPrecision; text-rendering:geometricPrecision; image-rendering:optimizeQuality; fill-rule:evenodd; clip-rule:evenodd"
viewBox="0 0 0.84 1.82"
 xmlns:xlink="http://www.w3.org/1999/xlink"
 xmlns:xodm="http://www.corel.com/coreldraw/odm/2003">
 <defs>
  <style type="text/css">
   <![CDATA[
    .fil0 {fill:white}
   ]]>
  </style>
 </defs>
 <g id="Слой_x0020_1">
  <metadata id="CorelCorpID_0Corel-Layer"/>
  <path class="fil0" d="M0.19 0.92l0 0.88c0,0.01 0.01,0.02 0.02,0.02l0.33 0c0.01,0 0.02,-0.01 0.02,-0.02l0 -0.89 0.24 0c0.01,0 0.02,-0.01 0.02,-0.02l0.02 -0.27c0,-0.01 -0.01,-0.02 -0.02,-0.02l-0.26 0 0 -0.19c0,-0.04 0.04,-0.08 0.08,-0.08l0.18 0c0.01,0 0.02,-0.01 0.02,-0.02l0 -0.27c0,-0.01 -0.01,-0.02 -0.02,-0.02l-0.31 0c-0.18,0 -0.33,0.15 -0.33,0.33l0 0.26 -0.16 0c-0.01,0 -0.02,0.01 -0.02,0.02l0 0.27c0,0.01 0.01,0.02 0.02,0.02l0.16 0 0 0.01z"/>
 </g>
</svg>
