<?xml version="1.0" encoding="UTF-8"?>
<!DOCTYPE svg PUBLIC "-//W3C//DTD SVG 1.1//EN" "http://www.w3.org/Graphics/SVG/1.1/DTD/svg11.dtd">
<!-- Creator: CorelDRAW 2020 (64-Bit Оценочная версия) -->
<svg xmlns="http://www.w3.org/2000/svg" xml:space="preserve" width="2.6005mm" height="1.7382mm" version="1.1" style="shape-rendering:geometricPrecision; text-rendering:geometricPrecision; image-rendering:optimizeQuality; fill-rule:evenodd; clip-rule:evenodd"
viewBox="0 0 4.09 2.73"
 xmlns:xlink="http://www.w3.org/1999/xlink"
 xmlns:xodm="http://www.corel.com/coreldraw/odm/2003">
 <defs>
  <style type="text/css">
   <![CDATA[
    .fil0 {fill:#F49B17}
   ]]>
  </style>
 </defs>
 <g id="Слой_x0020_1">
  <metadata id="CorelCorpID_0Corel-Layer"/>
  <path class="fil0" d="M0.07 2.73l0.76 0c0.04,0 0.07,-0.03 0.07,-0.07l0 -2.54c0,-0.04 -0.03,-0.07 -0.07,-0.07l-0.76 0c-0.04,0 -0.07,0.03 -0.07,0.07l0 2.54c0,0.04 0.03,0.07 0.07,0.07zm4.02 -1.53l0 1.47c0,0.04 -0.03,0.07 -0.07,0.07l-0.76 0c-0.04,0 -0.07,-0.03 -0.07,-0.07l0 -1.36c0,-0.36 -0.13,-0.6 -0.45,-0.6 -0.25,0 -0.39,0.16 -0.46,0.32 -0.02,0.06 -0.03,0.14 -0.03,0.22l0 1.43c0,0.04 -0.03,0.07 -0.07,0.07l-0.76 0c-0.04,0 -0.07,-0.03 -0.07,-0.07 0,-0.36 0.01,-2.13 0,-2.54 -0,-0.04 0.03,-0.07 0.07,-0.07l0.76 0c0.04,0 0.07,0.03 0.07,0.07l0 0.31c-0,0 -0,0.01 -0.01,0.01l0.01 0 0 -0.01c0.12,-0.18 0.33,-0.44 0.8,-0.44 0.58,0 1.02,0.38 1.02,1.2z"/>
 </g>
</svg>
