<?xml version="1.0" encoding="UTF-8"?>
<!DOCTYPE svg PUBLIC "-//W3C//DTD SVG 1.1//EN" "http://www.w3.org/Graphics/SVG/1.1/DTD/svg11.dtd">
<!-- Creator: CorelDRAW 2020 (64-Bit Оценочная версия) -->
<svg xmlns="http://www.w3.org/2000/svg" xml:space="preserve" width="65.6476mm" height="25.2773mm" version="1.1" style="shape-rendering:geometricPrecision; text-rendering:geometricPrecision; image-rendering:optimizeQuality; fill-rule:evenodd; clip-rule:evenodd"
viewBox="0 0 1163.42 287.43"
 xmlns:xlink="http://www.w3.org/1999/xlink"
 xmlns:xodm="http://www.corel.com/coreldraw/odm/2003">
 <defs>
  <style type="text/css">
   <![CDATA[
    .fil0 {fill:#0e427e}
    .fil2 {fill:#0e427e;fill-rule:nonzero}
    .fil1 {fill:#F49B17;fill-rule:nonzero}
   ]]>
  </style>
 </defs>
 <g id="Слой_x0020_1">
  <metadata id="CorelCorpID_0Corel-Layer"/>
  <path class="fil0" d="M297.3 286.82l142.6 -142.6 -142.6 -142.6 -38.68 38.68 -38.68 -38.68 -17.41 17.41 17.15 17.33 0.26 -0.27 21.23 21.66 -0.16 0.16 17.54 17.72 0.07 -0.08 67.28 68.66 -67.28 68.65 -20.83 -21.25 47.4 -47.4 -32.79 -32.79 -0 0 -32.45 -32.45 -21.23 -21.23 -40.02 -40.02 0 0 -16.1 -16.1 -142.6 142.6 142.6 142.6 38.67 -38.67 38.67 38.67 17.38 -17.38 -123.34 -125.22 67.29 -68.67 20.84 21.26 -47.4 47.4 142.6 142.6zm-219.96 -142.6l86.48 -86.47 -21.22 -21.65 -105.96 108.13 105.96 108.13 21.22 -21.65 -86.48 -86.48zm198.74 -86.46l86.46 86.46 -86.46 86.46 21.23 21.66 105.96 -108.13 -105.96 -108.13 -21.23 21.66zm-84.73 86.47l28.61 -29.19 28.61 29.19 -28.61 29.19 -28.61 -29.19z"/>
  <path class="fil1" d="M528.62 213.07l40.85 0 33 -115.96c4.71,-17.28 9.11,-38.34 9.43,-38.97l0.63 0c0,0.63 4.09,22 8.49,38.97l30.17 115.96 40.85 0 57.2 -209.29 -42.42 0 -27.03 108.73c-4.4,16.97 -7.23,38.02 -7.54,38.65l-0.63 0c-0.31,-0.63 -4.09,-22.63 -8.48,-39.91l-27.97 -107.47 -43.68 0 -28.6 108.1c-4.09,16.66 -8.48,38.97 -8.8,39.6l-0.63 0c0,-0.63 -3.46,-21.68 -7.54,-38.34l-26.4 -109.36 -47.14 0 56.25 209.29zm251.72 0l61.59 0c83.28,0 121.3,-47.14 121.3,-107.48 0,-60.34 -37.4,-101.82 -119.73,-101.82l-63.16 0 0 209.29zm44.31 -35.51l0 -138.27 19.17 0c49.65,0 72.59,20.74 72.59,67.56 0,46.51 -23.88,70.71 -71.02,70.71l-20.74 0zm272.46 39.28c30.49,0 55.63,-12.26 66.31,-22l-18.23 -31.11c-11,8.17 -24.83,16.03 -47.45,16.03 -40.85,0 -60.97,-33 -60.97,-72.91 0,-38.65 21.05,-70.08 60.34,-70.08 19.17,0 32.06,4.71 43.68,12.25l19.8 -32.37c-16.34,-10.68 -35.51,-16.66 -62.85,-16.66 -70.71,0 -108.1,51.22 -108.1,108.11 0,56.88 36.14,108.73 107.47,108.73z"/>
  <path class="fil2" d="M480.85 286.86l6.13 0 4.95 -17.41c0.71,-2.59 1.37,-5.75 1.41,-5.85l0.09 0c0,0.09 0.61,3.3 1.27,5.85l4.53 17.41 6.13 0 8.58 -31.41 -6.37 0 -4.06 16.32c-0.66,2.55 -1.08,5.71 -1.13,5.8l-0.09 0c-0.05,-0.09 -0.61,-3.39 -1.27,-5.99l-4.2 -16.13 -6.56 0 -4.29 16.23c-0.61,2.5 -1.27,5.85 -1.32,5.94l-0.09 0c0,-0.09 -0.52,-3.25 -1.13,-5.75l-3.96 -16.41 -7.07 0 8.44 31.41zm37.78 0l18.44 0 0 -5.47 -11.88 0 0 -8.21 10.19 0 0 -5.19 -10.19 0 0 -7.08 11.55 0 0 -5.47 -18.11 0 0 31.41zm32.5 0.57c6.98,0 11.27,-3.63 11.27,-9.34 0,-5.8 -3.91,-7.92 -8.07,-9.81 -3.3,-1.51 -5.8,-2.31 -5.8,-4.76 0,-2.12 1.65,-3.25 4.2,-3.25 2.69,0 5.05,1.23 6.13,1.93l2.69 -4.67c-1.32,-0.99 -4.05,-2.64 -9.2,-2.64 -5.61,0 -10.14,3.35 -10.14,8.73 0,5.09 2.88,7.5 6.75,9.38 3.68,1.84 7.03,2.64 7.03,5.43 0,2.03 -1.84,3.63 -5,3.63 -3.63,0 -6.04,-1.84 -6.74,-2.36l-2.83 4.62c1.37,1.13 4.62,3.11 9.72,3.11zm22.26 -0.57l6.7 0 0 -25.94 8.63 0 0 -5.47 -24.01 0 0 5.47 8.68 0 0 25.94zm29.06 0l9.24 0c12.5,0 18.21,-7.08 18.21,-16.13 0,-9.06 -5.61,-15.28 -17.97,-15.28l-9.48 0 0 31.41zm6.65 -5.33l0 -20.75 2.88 0c7.45,0 10.9,3.11 10.9,10.14 0,6.98 -3.59,10.61 -10.66,10.61l-3.11 0zm26.65 5.33l18.44 0 0 -5.47 -11.88 0 0 -8.21 10.19 0 0 -5.19 -10.19 0 0 -7.08 11.56 0 0 -5.47 -18.11 0 0 31.41zm33.82 0l6.32 0 11.7 -31.41 -6.7 0 -6.37 18.82c-0.75,2.36 -1.41,4.67 -1.6,5.24l-0.09 0c-0.14,-0.57 -0.75,-2.83 -1.6,-5.24l-6.6 -18.82 -7.17 0 12.12 31.41zm22.54 0l18.44 0 0 -5.47 -11.88 0 0 -8.21 10.19 0 0 -5.19 -10.19 0 0 -7.08 11.56 0 0 -5.47 -18.11 0 0 31.41zm25.09 0l18.4 0 0 -5.38 -11.7 0 0 -26.04 -6.7 0 0 31.41zm36.98 0.57c10.52,0 16.04,-7.88 16.04,-16.41 0,-8.44 -5.66,-16.13 -16.18,-16.13 -10.52,0 -16.23,7.78 -16.23,16.32 0,8.49 5.85,16.23 16.37,16.23zm-0.14 -5.38c-6.27,0 -9.15,-5.14 -9.15,-11.04 0,-5.85 2.97,-10.75 9.29,-10.75 6.27,0 9.01,5.09 9.01,10.94 0,5.85 -2.83,10.85 -9.15,10.85zm22.03 4.81l6.7 0 0 -11.18 2.88 0c7.83,0 12.78,-3.49 12.78,-10.33 0,-6.74 -5.19,-9.9 -12.03,-9.9l-10.33 0 0 31.41zm6.7 -16.23l0 -10.09 3.11 0c4.1,0 5.85,1.74 5.85,4.9 0,3.49 -1.79,5.19 -5.99,5.19l-2.97 0zm17.88 16.23l5.99 0 2.03 -16.18c0.23,-2.08 0.38,-3.91 0.43,-4.62l0.09 0c0.19,0.66 0.66,2.55 1.27,4.53l5.33 16.27 6.56 0 5.33 -16.32c0.66,-2.07 1.13,-3.77 1.27,-4.48l0.1 0c0.05,0.61 0.23,2.26 0.52,4.57l2.03 16.23 6.79 0 -4.34 -31.41 -6.42 0 -6.51 19.39c-0.75,2.26 -1.41,4.57 -1.65,5.42l-0.09 0c-0.28,-0.89 -0.85,-3.16 -1.61,-5.42l-6.32 -19.39 -6.46 0 -4.34 31.41zm43.58 0l18.44 0 0 -5.47 -11.88 0 0 -8.21 10.19 0 0 -5.19 -10.19 0 0 -7.08 11.55 0 0 -5.47 -18.11 0 0 31.41zm24.95 0l6.04 0 0 -17.97c0,-1.98 -0.14,-3.77 -0.19,-4.2l0.09 0c0.38,0.61 1.32,2.36 3.02,4.72l12.22 17.45 6.08 0 0 -31.41 -6.04 0 0 16.6c0,2.41 0.14,4.53 0.19,4.95l-0.09 0c-0.28,-0.52 -1.41,-2.59 -3.3,-5.28l-11.32 -16.27 -6.7 0 0 31.41zm40.47 0l6.7 0 0 -25.94 8.63 0 0 -5.47 -24.01 0 0 5.47 8.68 0 0 25.94zm43.3 0.57c4.57,0 8.35,-1.84 9.95,-3.3l-2.74 -4.67c-1.65,1.23 -3.73,2.4 -7.12,2.4 -6.13,0 -9.15,-4.95 -9.15,-10.94 0,-5.8 3.16,-10.52 9.06,-10.52 2.88,0 4.81,0.71 6.56,1.84l2.97 -4.86c-2.45,-1.6 -5.33,-2.5 -9.43,-2.5 -10.61,0 -16.23,7.69 -16.23,16.23 0,8.54 5.42,16.32 16.13,16.32zm28.68 0c10.52,0 16.04,-7.88 16.04,-16.41 0,-8.44 -5.66,-16.13 -16.18,-16.13 -10.52,0 -16.23,7.78 -16.23,16.32 0,8.49 5.85,16.23 16.37,16.23zm-0.14 -5.38c-6.27,0 -9.15,-5.14 -9.15,-11.04 0,-5.85 2.97,-10.75 9.29,-10.75 6.27,0 9.01,5.09 9.01,10.94 0,5.85 -2.83,10.85 -9.15,10.85zm19.9 4.81l5.99 0 2.03 -16.18c0.23,-2.08 0.38,-3.91 0.42,-4.62l0.09 0c0.19,0.66 0.66,2.55 1.27,4.53l5.33 16.27 6.56 0 5.33 -16.32c0.66,-2.07 1.13,-3.77 1.27,-4.48l0.09 0c0.05,0.61 0.24,2.26 0.52,4.57l2.03 16.23 6.79 0 -4.34 -31.41 -6.42 0 -6.51 19.39c-0.75,2.26 -1.41,4.57 -1.65,5.42l-0.09 0c-0.28,-0.89 -0.85,-3.16 -1.6,-5.42l-6.32 -19.39 -6.46 0 -4.34 31.41zm43.49 0l6.7 0 0 -11.18 2.88 0c7.83,0 12.78,-3.49 12.78,-10.33 0,-6.74 -5.19,-9.9 -12.02,-9.9l-10.33 0 0 31.41zm6.7 -16.23l0 -10.09 3.11 0c4.1,0 5.85,1.74 5.85,4.9 0,3.49 -1.79,5.19 -5.99,5.19l-2.97 0zm25.75 5l2.69 -7.5c0.89,-2.55 1.41,-4.67 1.65,-5.42l0.09 0c0.28,0.71 0.71,2.73 1.7,5.42l2.69 7.5 -8.82 0zm-10.61 11.22l6.7 0 2.07 -5.9 12.55 0 2.12 5.9 7.26 0 -12.31 -31.41 -6.41 0 -11.98 31.41zm35.23 0l6.04 0 0 -17.97c0,-1.98 -0.14,-3.77 -0.19,-4.2l0.09 0c0.38,0.61 1.32,2.36 3.02,4.72l12.22 17.45 6.08 0 0 -31.41 -6.04 0 0 16.6c0,2.41 0.14,4.53 0.19,4.95l-0.09 0c-0.28,-0.52 -1.41,-2.59 -3.3,-5.28l-11.32 -16.27 -6.7 0 0 31.41zm42.07 0l6.65 0 0 -11.84 10.09 -19.57 -6.46 0 -6.6 13.35 -0.05 0 -6.65 -13.35 -7.41 0 10.42 19.57 0 11.84z"/>
 </g>
</svg>
