<?xml version="1.0" encoding="UTF-8"?>
<!DOCTYPE svg PUBLIC "-//W3C//DTD SVG 1.1//EN" "http://www.w3.org/Graphics/SVG/1.1/DTD/svg11.dtd">
<!-- Creator: CorelDRAW 2020 (64-Bit Оценочная версия) -->
<svg xmlns="http://www.w3.org/2000/svg" xml:space="preserve" width="2.1219mm" height="2.1218mm" version="1.1" style="shape-rendering:geometricPrecision; text-rendering:geometricPrecision; image-rendering:optimizeQuality; fill-rule:evenodd; clip-rule:evenodd"
viewBox="0 0 2.57 2.57"
 xmlns:xlink="http://www.w3.org/1999/xlink"
 xmlns:xodm="http://www.corel.com/coreldraw/odm/2003">
 <defs>
  <style type="text/css">
   <![CDATA[
    .fil0 {fill:#F49B17}
   ]]>
  </style>
 </defs>
 <g id="Слой_x0020_1">
  <metadata id="CorelCorpID_0Corel-Layer"/>
  <path class="fil0" d="M2.33 1.8c0,0.29 -0.24,0.53 -0.53,0.53l-1.02 0c-0.29,0 -0.53,-0.24 -0.53,-0.53l0 -1.02c0,-0.29 0.24,-0.53 0.53,-0.53l1.02 0c0.29,0 0.53,0.24 0.53,0.53l0 1.02zm0.24 -1.02c0,-0.43 -0.35,-0.77 -0.77,-0.77l-1.02 0c-0.43,0 -0.77,0.35 -0.77,0.77l0 1.02c0,0.43 0.35,0.77 0.77,0.77l1.02 0c0.43,0 0.77,-0.35 0.77,-0.77l0 -1.02zm-1.28 0.93c-0.22,0 -0.41,-0.18 -0.41,-0.41 0,-0.22 0.18,-0.41 0.41,-0.41 0.22,0 0.41,0.18 0.41,0.41 0,0.22 -0.18,0.41 -0.41,0.41zm0 -1.04c-0.35,0 -0.64,0.28 -0.64,0.64 0,0.35 0.29,0.64 0.64,0.64 0.35,0 0.64,-0.28 0.64,-0.64 0,-0.35 -0.28,-0.64 -0.64,-0.64zm0.67 -0.19c-0.08,0 -0.15,0.07 -0.15,0.15 0,0.08 0.07,0.15 0.15,0.15 0.08,0 0.15,-0.07 0.15,-0.15 0,-0.08 -0.07,-0.15 -0.15,-0.15z"/>
 </g>
</svg>
