<svg width="100%" height="100%" viewBox="0 0 14 13" fill="none" xmlns="http://www.w3.org/2000/svg">
<path fill-rule="evenodd" clip-rule="evenodd" d="M2.64977 7.37992C2.86977 7.32992 3.15977 7.13992 3.39977 7.11992V9.99992H2.64977V7.37992ZM1.12977 8.45992C1.12977 8.31992 1.48977 8.01992 1.60977 7.92992C1.82977 7.75992 2.01977 7.67992 2.25977 7.55992V9.99992H1.12977V8.45992ZM7.44977 6.62992C8.24977 7.16992 7.82977 7.13992 8.54977 6.77992C9.14977 6.47992 9.28977 6.73992 9.32977 6.21992C9.33977 6.07992 9.36977 5.93992 9.37977 5.80992C9.80977 5.80992 9.76977 5.71992 9.81977 6.09992C9.87977 6.68992 9.79977 6.43992 10.6198 6.76992C11.1398 6.97992 10.9298 7.27992 11.6998 6.60992L11.9898 6.88992C11.9298 7.07992 11.5998 7.31992 11.5998 7.50992C11.5998 7.61992 11.8498 7.89992 11.9998 8.37992C12.0598 8.58992 12.0098 8.69992 12.2398 8.75992C12.3298 8.77992 12.7098 8.82992 12.8098 8.82992V9.23992C12.6398 9.23992 12.1598 9.27992 12.0798 9.38992C12.0298 9.45992 11.9798 9.86992 11.6898 10.3399C11.5098 10.6299 11.5698 10.5899 11.7898 10.8999C11.8598 10.9899 11.9498 11.0699 11.9798 11.1799L11.6998 11.4699L11.4098 11.2399C11.0098 10.9399 11.1598 11.0299 10.6898 11.2799C10.0198 11.6399 9.79977 11.2499 9.79977 12.2699H9.38977C9.31977 11.4199 9.26977 11.5499 8.93977 11.4599C8.41977 11.3099 8.18977 11.0599 8.01977 11.0599C7.94977 11.0599 7.53977 11.4099 7.44977 11.4699L7.15977 11.1699C7.25977 11.0599 7.54977 10.7099 7.54977 10.5999C7.54977 10.3599 7.29977 10.2699 7.15977 9.67992C7.06977 9.28992 7.06977 9.33992 6.61977 9.28992C6.50977 9.27992 6.45977 9.25992 6.33977 9.25992V8.84992L6.91977 8.78992C7.23977 8.72992 7.04977 8.38992 7.46977 7.73992C7.61977 7.49992 7.63977 7.54992 7.37977 7.21992L7.21977 7.01992C7.19977 6.98992 7.17977 6.96992 7.15977 6.94992L7.43977 6.65992L7.44977 6.62992ZM7.14977 7.53992L6.93977 7.94992C6.88977 8.07992 6.82977 8.25992 6.78977 8.41992C6.61977 8.41992 6.44977 8.44992 6.31977 8.45992C5.89977 8.50992 5.98977 8.50992 5.98977 9.46992C5.98977 9.67992 6.49977 9.63992 6.78977 9.69992C6.80977 9.79992 6.85977 9.90992 6.86977 10.0099H3.77977V6.96992C3.77977 6.88992 4.09977 6.59992 4.16977 6.55992C4.44977 6.74992 5.01977 7.50992 5.21977 7.50992C5.33977 7.50992 5.69977 7.08992 5.80977 6.98992C5.94977 6.84992 6.26977 6.56992 6.35977 6.42992C6.45977 6.48992 6.51977 6.57992 6.60977 6.66992C6.88977 6.93992 6.55977 6.72992 6.83977 7.09992L7.14977 7.52992V7.53992ZM5.18977 7.02992C4.96977 6.88992 4.68977 6.51992 4.54977 6.37992C4.30977 6.12992 4.35977 6.29992 4.35977 5.79992C4.78977 6.02992 5.35977 6.08992 5.80977 5.90992C5.91977 5.86992 6.08977 5.76992 6.15977 5.74992C6.15977 6.18992 6.22977 6.02992 5.76977 6.48992C5.65977 6.59992 5.28977 7.00992 5.17977 7.03992L5.18977 7.02992ZM3.48977 3.42992V3.29992H6.93977C6.93977 4.14992 6.66977 4.92992 5.99977 5.36992C5.34977 5.80992 4.52977 5.62992 4.05977 5.03992C4.00977 4.97992 3.98977 4.96992 3.93977 4.89992C3.68977 4.53992 3.48977 4.01992 3.48977 3.41992V3.42992ZM3.12977 2.55992C3.12977 1.81992 3.67977 1.10992 4.35977 0.809924C5.17977 0.439924 6.06977 0.659924 6.68977 1.27992C7.17977 1.75992 7.23977 2.24992 7.23977 2.91992C6.91977 2.88992 7.13977 2.91992 6.92977 2.91992C5.68977 2.91992 4.40977 2.88992 3.16977 2.91992C3.14977 2.82992 3.11977 2.65992 3.11977 2.55992H3.12977ZM2.76977 2.45992V2.91992C2.59977 2.91992 2.48977 2.90992 2.48977 3.12992C2.48977 3.36992 2.73977 3.30992 3.10977 3.30992C3.10977 4.05992 3.23977 4.55992 3.63977 5.14992C4.01977 5.69992 3.95977 5.17992 3.95977 6.16992C3.95977 6.24992 3.70977 6.45992 3.63977 6.51992C3.43977 6.72992 3.48977 6.66992 3.18977 6.76992C3.00977 6.82992 2.85977 6.88992 2.67977 6.95992C2.17977 7.15992 1.74977 7.34992 1.30977 7.67992C1.17977 7.77992 1.04977 7.87992 0.949773 8.00992C0.859773 8.11992 0.729773 8.30992 0.729773 8.48992C0.729773 10.6199 0.579773 10.4199 1.29977 10.4199C2.20977 10.4199 6.89977 10.4599 7.03977 10.3899C7.05977 10.4799 7.09977 10.5199 7.13977 10.5999L7.02977 10.7399C6.63977 11.2499 6.57977 11.1799 7.00977 11.6099C7.21977 11.8199 7.24977 11.9399 7.44977 11.9399C7.52977 11.9399 7.98977 11.5299 8.01977 11.5299C8.12977 11.5299 8.14977 11.5799 8.22977 11.6199C8.36977 11.6899 8.76977 11.8499 8.91977 11.8599C8.91977 12.0199 8.95977 12.2099 8.96977 12.3699C9.00977 12.7699 9.16977 12.6799 9.86977 12.6799C10.0898 12.6799 10.1398 12.5899 10.1598 12.3799C10.1798 12.2099 10.2098 12.0099 10.2298 11.8499C10.6098 11.8199 10.9098 11.5899 11.0298 11.5399C11.1498 11.4899 11.1898 11.5799 11.3798 11.7099C11.8498 12.0599 11.7398 11.9799 12.1098 11.6099C12.3198 11.3999 12.4498 11.3599 12.4498 11.1499C12.4498 11.0699 12.0398 10.5999 12.0398 10.5799C12.0398 10.4899 12.1498 10.3299 12.2298 10.1499C12.2998 9.98992 12.3398 9.84992 12.3798 9.67992C12.5198 9.67992 12.7298 9.63992 12.8898 9.61992C13.2898 9.56992 13.1998 9.41992 13.1998 8.71992C13.1998 8.49992 13.0998 8.45992 12.9098 8.43992C12.7398 8.41992 12.5398 8.37992 12.3698 8.37992C12.3698 8.24992 12.2798 8.00992 12.2398 7.91992C12.2098 7.85992 12.0298 7.53992 12.0298 7.50992C12.0298 7.37992 12.4398 7.10992 12.4398 6.83992C12.4398 6.76992 11.9198 6.26992 11.8398 6.19992C11.6498 6.03992 11.3998 6.37992 11.0998 6.57992C10.9298 6.48992 10.4398 6.24992 10.2298 6.24992C10.2198 6.09992 10.1898 5.92992 10.1698 5.76992C10.1198 5.33992 10.1298 5.42992 9.16977 5.42992C8.96977 5.42992 8.96977 5.84992 8.94977 6.05992C8.92977 6.21992 8.97977 6.21992 8.86977 6.25992L8.64977 6.31992C8.43977 6.38992 8.24977 6.46992 8.06977 6.58992C7.86977 6.48992 7.71977 6.30992 7.53977 6.19992C7.32977 6.06992 7.14977 6.40992 6.98977 6.51992C6.91977 6.46992 6.54977 6.13992 6.54977 6.05992C6.54977 5.15992 6.48977 5.59992 6.82977 5.07992C7.19977 4.51992 7.31977 4.01992 7.31977 3.29992C7.70977 3.29992 7.95977 3.36992 7.95977 3.06992C7.95977 2.88992 7.71977 2.91992 7.64977 2.91992C7.64977 2.36992 7.65977 2.05992 7.38977 1.55992C7.28977 1.35992 7.11977 1.14992 6.96977 0.979924C6.32977 0.289924 5.20977 0.0599244 4.23977 0.439924C4.15977 0.469924 4.10977 0.489924 4.04977 0.529924C3.98977 0.559924 3.92977 0.599924 3.86977 0.629924C3.70977 0.729924 3.65977 0.789924 3.53977 0.889924C3.50977 0.909924 3.48977 0.929924 3.46977 0.949924C3.41977 0.999924 3.43977 0.979924 3.39977 1.02992C3.06977 1.41992 2.75977 1.88992 2.75977 2.44992L2.76977 2.45992Z" fill="#FEFEFE"/>
<path fill-rule="evenodd" clip-rule="evenodd" d="M12.2196 5.62997C11.9296 5.62997 11.7696 5.46997 11.5996 5.21997C11.7696 5.10997 12.3396 4.49997 12.4496 4.46997C12.5996 4.57997 12.7796 4.81997 12.7796 5.05997C12.7796 5.33997 12.4996 5.62997 12.2096 5.62997H12.2196ZM8.99961 2.40997L9.81961 1.63997L10.9796 2.88997C11.0296 2.93997 11.0696 2.97997 11.1196 3.02997L12.1496 4.15997C12.0696 4.27997 11.6596 4.60997 11.5396 4.72997C11.4696 4.79997 11.4096 4.86997 11.3296 4.92997L10.5996 4.15997C10.2696 3.82997 9.89961 3.37997 9.56961 3.04997L9.11961 2.56997C9.05961 2.49997 9.01961 2.45997 8.97961 2.39997L8.99961 2.40997ZM8.30961 0.809966L9.51961 1.39997L8.79961 2.06997C8.78961 1.97997 8.71961 1.83997 8.67961 1.74997L8.30961 0.809966ZM12.1696 6.00997C12.7696 6.00997 13.1996 5.52997 13.1996 5.13997C13.1996 4.56997 13.0796 4.55997 12.7596 4.18997L11.8596 3.20997C11.7496 3.09997 11.6796 2.99997 11.5596 2.88997L11.1096 2.40997C11.0396 2.33997 11.0196 2.29997 10.9596 2.22997L10.0596 1.27997C9.92961 1.14997 9.86961 1.14997 9.64961 1.03997C9.36961 0.899966 9.09961 0.759966 8.80961 0.619966C8.42961 0.429966 7.84961 0.0199661 7.73961 0.339966C7.69961 0.459966 7.89961 0.879966 7.96961 1.04997C8.09961 1.36997 8.21961 1.65997 8.34961 1.97997C8.62961 2.68997 8.47961 2.38997 8.84961 2.78997C8.90961 2.85997 8.91961 2.88997 8.98961 2.95997C9.43961 3.41997 9.97961 4.04997 10.4096 4.47997L11.2696 5.41997C11.5196 5.69997 11.7796 6.00997 12.1696 6.00997Z" fill="#FEFEFE"/>
<path fill-rule="evenodd" clip-rule="evenodd" d="M9.61934 10.3899C9.19934 10.3899 8.95934 10.2699 8.65934 10.0299C8.47934 9.8899 8.22934 9.4699 8.22934 9.1499C8.22934 8.7099 8.27934 8.3899 8.61934 8.0499C9.45934 7.2099 10.9593 7.7999 10.9593 9.0199C10.9593 9.7399 10.3393 10.3799 9.61934 10.3799V10.3899ZM7.81934 8.9999C7.81934 9.4899 8.00934 9.9399 8.32934 10.2699C9.37934 11.3799 11.3493 10.6499 11.3493 9.0299C11.3493 8.5199 11.0893 8.0499 10.8293 7.7999C10.1693 7.1499 9.12934 7.1199 8.48934 7.6899C8.24934 7.8999 8.15934 8.0099 8.00934 8.3099C7.91934 8.4899 7.82934 8.7999 7.82934 9.0099L7.81934 8.9999Z" fill="#FEFEFE"/>
<path fill-rule="evenodd" clip-rule="evenodd" d="M5.21973 1.31006C5.87973 1.31006 5.76973 2.11006 5.26973 2.11006C4.70973 2.11006 4.78973 1.31006 5.21973 1.31006ZM4.46973 1.70006C4.46973 2.11006 4.80973 2.50006 5.21973 2.50006C5.45973 2.50006 5.67973 2.46006 5.85973 2.26006C6.38973 1.64006 5.85973 0.89006 5.27973 0.91006C4.83973 0.92006 4.47973 1.28006 4.47973 1.70006H4.46973Z" fill="#FEFEFE"/>
</svg>
