<?xml version="1.0" encoding="UTF-8"?>
<!DOCTYPE svg PUBLIC "-//W3C//DTD SVG 1.1//EN" "http://www.w3.org/Graphics/SVG/1.1/DTD/svg11.dtd">
<!-- Creator: CorelDRAW 2020 (64-Bit Оценочная версия) -->
<svg xmlns="http://www.w3.org/2000/svg" xml:space="preserve" width="15.2806mm" height="8.7478mm" version="1.1" style="shape-rendering:geometricPrecision; text-rendering:geometricPrecision; image-rendering:optimizeQuality; fill-rule:evenodd; clip-rule:evenodd"
viewBox="0 0 154.43 88.41"
 xmlns:xlink="http://www.w3.org/1999/xlink"
 xmlns:xodm="http://www.corel.com/coreldraw/odm/2003">
 <defs>
  <style type="text/css">
   <![CDATA[
    .fil0 {fill:#FEFEFE;fill-rule:nonzero}
   ]]>
  </style>
 </defs>
 <g id="Слой_x0020_1">
  <metadata id="CorelCorpID_0Corel-Layer"/>
  <path class="fil0" d="M37.91 67.28l-0.08 0 -0.03 0 -0.06 0 -0.05 0 -0.03 0 -0.08 0 -0 0 -0.08 0 -0.03 0 -0.06 0 -0.05 0 -0.03 0 -0.08 0.01 -0 0 -0.08 0.01 -0.02 0 -0.06 0.01 -0.05 0.01 -0.03 0 -0.07 0.01 -0.01 0c-1.9,0.22 -3.62,1.07 -4.94,2.32l-0.03 0.03 -0.05 0.05 -0.01 0.01 -0.06 0.06 -0.01 0.01 -0.05 0.05c-0.8,0.82 -1.44,1.81 -1.87,2.94 -0.03,0.09 -0.07,0.17 -0.12,0.25 -0.31,0.89 -0.49,1.85 -0.49,2.84 0,2.37 0.97,4.52 2.52,6.08 1.56,1.56 3.71,2.52 6.08,2.52 2.37,0 4.52,-0.96 6.07,-2.52 1.56,-1.56 2.52,-3.71 2.52,-6.08 0,-0.99 -0.17,-1.95 -0.48,-2.84 -0.04,-0.08 -0.08,-0.16 -0.12,-0.24 -0.54,-1.39 -1.39,-2.58 -2.46,-3.49l-0.01 -0 -0.12 -0.1 -0 -0 -0.03 -0.03 -0.03 -0.02 -0.05 -0.04 -0.01 -0.01c-1.05,-0.82 -2.3,-1.41 -3.66,-1.67l-0.01 -0c-0.14,-0.03 -0.28,-0.05 -0.42,-0.07l-0.05 -0.01 -0.06 -0.01 -0.1 -0.01 -0 0 -0.08 -0.01 -0.03 -0 -0.05 -0.01 -0.06 -0.01 -0.02 -0 -0.08 -0.01 -0 0 -0.08 -0.01 -0.03 -0 -0.05 -0 -0.06 -0 -0.03 -0 -0.08 -0 -0 0 -0.08 -0 -0.03 -0 -0.05 -0 -0.06 -0 -0.03 -0 -0.08 0zm44.62 -53.88l-18.73 0 -0.02 0 -0.02 0 -0.03 0 -59.52 0 1.4 10.18 60.07 0c0.54,0 1.03,0.22 1.39,0.58 0.35,0.36 0.58,0.85 0.58,1.39 0,0.54 -0.22,1.03 -0.58,1.39 -0.35,0.35 -0.85,0.58 -1.39,0.58l-59.53 0 2.41 17.45 86.49 0 0 -34.65c0,-0.54 0.22,-1.03 0.57,-1.39 0.35,-0.35 0.84,-0.57 1.38,-0.57l15.5 0 1.86 -4.43 -44.66 0 -2.78 5.55 15.59 0c0.54,0 1.03,0.22 1.39,0.58 0.35,0.35 0.57,0.85 0.57,1.39 0,0.54 -0.22,1.03 -0.58,1.39 -0.35,0.36 -0.84,0.58 -1.38,0.58zm-63.89 43.2l76.41 0 0 -7.72 -85.95 0 1 7.24c0.02,0.14 0.09,0.26 0.18,0.34 0.1,0.08 0.23,0.14 0.37,0.14l1.01 0 0.03 0 0.03 0 6.93 0zm128.73 17.46l-19.75 0c0.09,0.6 0.13,1.21 0.13,1.83 0,3.45 -1.41,6.58 -3.67,8.84 -2.27,2.27 -5.4,3.68 -8.85,3.68 -3.45,0 -6.58,-1.41 -8.85,-3.67 -2.27,-2.27 -3.68,-5.4 -3.68,-8.85 0,-0.62 0.05,-1.23 0.13,-1.83l-18.89 0c0.09,0.6 0.13,1.21 0.13,1.83 0,3.45 -1.41,6.58 -3.67,8.85 -2.27,2.27 -5.4,3.67 -8.85,3.67 -3.45,0 -6.58,-1.41 -8.85,-3.67 -2.27,-2.27 -3.68,-5.4 -3.68,-8.85 0,-0.62 0.05,-1.23 0.13,-1.83l-8.88 0c0.09,0.6 0.13,1.21 0.13,1.83 0,3.45 -1.41,6.58 -3.67,8.84 -2.27,2.27 -5.4,3.68 -8.85,3.68 -3.45,0 -6.58,-1.4 -8.85,-3.67 -2.27,-2.27 -3.68,-5.4 -3.68,-8.85 0,-0.62 0.05,-1.23 0.14,-1.83l-6.88 0c-0.54,0 -1.03,-0.22 -1.38,-0.58 -0.35,-0.35 -0.57,-0.84 -0.57,-1.38l0 -11.58 -3.03 0 0 7.32c0,0.54 -0.22,1.03 -0.57,1.38 -0.36,0.36 -0.85,0.58 -1.39,0.58 -0.54,0 -1.03,-0.22 -1.38,-0.58 -0.35,-0.36 -0.57,-0.85 -0.57,-1.39l0 -7.42c-0.76,-0.16 -1.45,-0.51 -2.02,-1.01 -0.79,-0.69 -1.34,-1.65 -1.5,-2.76l-1.29 -9.38 -0.02 -0.17 -2.93 -21.22 -0.02 -0.13 -1.94 -14.04c-0.04,-0.28 -0.01,-0.56 0.06,-0.82 0.08,-0.26 0.21,-0.51 0.4,-0.73 0.19,-0.22 0.42,-0.38 0.67,-0.5 0.26,-0.12 0.53,-0.18 0.81,-0.18l60.59 0 4.2 -8.39c0.17,-0.33 0.42,-0.6 0.72,-0.79 0.31,-0.19 0.66,-0.29 1.03,-0.29l48.81 0c0.33,0 0.65,0.08 0.93,0.24 0.28,0.15 0.53,0.37 0.71,0.65 0.18,0.27 0.28,0.58 0.31,0.9 0.03,0.31 -0.02,0.64 -0.15,0.94l-3.51 8.34c-0.15,0.37 -0.4,0.67 -0.72,0.88 -0.32,0.21 -0.7,0.33 -1.09,0.33l-14.84 0 0 34.62 0 0.03 0 0.03 0 9.65 2.6 0 0 -12.63 0 -0.03 0 -0.03 0 -28.11 0 -0.03c0,-0.54 0.22,-1.03 0.58,-1.39 0.35,-0.35 0.85,-0.58 1.39,-0.58l0.03 0 23.04 0c1.43,0 2.81,0.36 4.03,1.02 1.22,0.66 2.27,1.62 3.06,2.83 3.04,4.65 10.56,14.89 12.53,19.23 0.98,2.07 1.73,4.23 2.25,6.42 0.04,0.12 0.07,0.25 0.09,0.38 0.52,2.3 0.78,4.64 0.78,6.96l0 0.52c1.16,0.34 2.19,0.96 3.02,1.79 1.28,1.28 2.07,3.04 2.07,4.99l0 4.82c0,1.94 -0.79,3.71 -2.07,4.99 -0.83,0.83 -1.87,1.46 -3.02,1.79l0 2.56c0,0.54 -0.22,1.03 -0.57,1.38 -0.36,0.36 -0.85,0.58 -1.39,0.58zm-24.03 -1.03c-0.04,-0.07 -0.07,-0.15 -0.1,-0.23 -0.51,-1.31 -1.3,-2.44 -2.28,-3.33l-0.02 -0.02 -0.04 -0.03 -0.04 -0.04 -0.02 -0.02 -0.06 -0.05 -0 -0c-1.13,-0.95 -2.51,-1.62 -4.02,-1.89l-0.04 -0.01 -0.06 -0.01c-0.14,-0.02 -0.28,-0.04 -0.42,-0.06l-0.01 0 -0.07 -0.01 -0.03 -0 -0.05 -0.01 -0.06 -0.01 -0.02 -0 -0.08 -0.01 -0 0 -0.08 -0.01 -0.03 -0 -0.05 -0 -0.06 -0 -0.02 -0 -0.08 -0 -0 0 -0.08 -0 -0.03 -0 -0.06 -0 -0.06 -0 -0.03 -0 -0.08 0 -0.08 0 -0.03 0 -0.06 0 -0.05 0 -0.03 0 -0.08 0 -0 0 -0.08 0 -0.02 0 -0.06 0 -0.05 0 -0.03 0 -0.08 0.01 -0 0 -0.08 0.01 -0.02 0 -0.06 0.01 -0.05 0.01 -0.03 0 -0.08 0.01 -0.01 0c-1.85,0.22 -3.53,1.02 -4.84,2.23l-0.01 0.01 -0.02 0.01 -0.04 0.04c-0.9,0.86 -1.63,1.94 -2.11,3.17 -0.03,0.09 -0.07,0.17 -0.12,0.26 -0.31,0.89 -0.48,1.84 -0.48,2.83 0,2.37 0.96,4.52 2.52,6.08 1.56,1.56 3.71,2.52 6.09,2.52 2.37,0 4.52,-0.96 6.07,-2.52 1.56,-1.56 2.52,-3.71 2.52,-6.08 0,-1 -0.17,-1.97 -0.49,-2.87zm-43.65 0.04c-0.05,-0.08 -0.09,-0.16 -0.12,-0.25 -0.52,-1.37 -1.36,-2.54 -2.4,-3.44l-0.06 -0.05 -0 -0 -0.06 -0.05 -0.02 -0.01 -0.04 -0.04c-1.1,-0.9 -2.44,-1.53 -3.9,-1.79l-0.04 -0.01 -0.06 -0.01c-0.14,-0.02 -0.28,-0.04 -0.42,-0.06l-0.01 0 -0.08 -0.01 -0.03 -0 -0.05 -0.01 -0.06 -0.01 -0.02 -0 -0.08 -0.01 -0 0 -0.08 -0.01 -0.03 -0 -0.05 -0 -0.06 -0 -0.03 -0 -0.08 -0 -0 0 -0.08 -0 -0.03 -0 -0.05 -0 -0.06 -0 -0.03 -0 -0.08 0 -0.08 0 -0.03 0 -0.06 0 -0.05 0 -0.03 0 -0.08 0 -0 0 -0.08 0 -0.03 0 -0.06 0 -0.05 0 -0.03 0 -0.08 0.01 -0 0 -0.08 0.01 -0.02 0 -0.06 0.01 -0.05 0.01 -0.03 0 -0.08 0.01 -0.01 0c-0.14,0.02 -0.28,0.04 -0.42,0.06l-0.06 0.01 -0.04 0.01c-1.32,0.24 -2.55,0.78 -3.59,1.55l-0.03 0.03 -0.15 0.12 -0.01 0.01 -0.05 0.04 -0.03 0.02 -0.03 0.03c-1.12,0.92 -2.02,2.15 -2.58,3.59 -0.03,0.09 -0.08,0.18 -0.12,0.26 -0.31,0.89 -0.48,1.84 -0.48,2.83 0,2.37 0.97,4.52 2.52,6.08 1.55,1.56 3.7,2.52 6.08,2.52 2.37,0 4.52,-0.96 6.08,-2.52 1.55,-1.56 2.52,-3.71 2.52,-6.08 0,-0.99 -0.17,-1.94 -0.48,-2.83zm17.29 -12.54l-76.38 0 0 9.62 6.18 0c0.54,-1.05 1.23,-2.01 2.04,-2.86l0.02 -0.02 0.05 -0.05 0.06 -0.06 0.01 -0.01 0.07 -0.07 0.02 -0.02 0.05 -0.05 0.05 -0.05c0.61,-0.6 1.28,-1.13 1.99,-1.59 1.45,-0.93 3.1,-1.56 4.85,-1.83l0.09 -0.01 0.07 -0.01 0.04 -0.01 0.11 -0.01 0 0 0.11 -0.01 0.05 -0 0.07 -0.01 0.09 -0.01 0.02 -0 0.11 -0.01 0.02 -0 0.09 -0.01 0.07 -0.01 0.05 -0 0.11 -0.01 0 0 0.11 -0.01 0.04 -0 0.07 -0 0.09 -0 0.02 -0 0.12 -0 0.02 -0 0.09 -0 0.07 -0 0.05 0 0.12 -0 0.11 0 0.05 0 0.07 0 0.09 0 0.02 0 0.11 0 0.02 0 0.09 0 0.07 0 0.05 0 0.11 0.01 0 0 0.11 0.01 0.05 0 0.07 0.01 0.09 0.01 0.02 0 0.11 0.01 0.02 0 0.09 0.01 0.07 0.01 0.04 0 0.11 0.01 0 0 0.11 0.01 0.04 0.01 0.07 0.01 0.09 0.01c1.75,0.27 3.4,0.9 4.85,1.83 0.59,0.38 1.15,0.81 1.66,1.28l0.01 0.01 0.07 0.07 0.02 0.02 0.05 0.05 0.06 0.06 0.01 0.01 0.2 0.2c0.9,0.91 1.67,1.95 2.27,3.1l11.42 0c0.6,-1.15 1.36,-2.19 2.27,-3.1l0.27 -0.26 0.05 -0.05 0.02 -0.02 0.07 -0.07 0.01 -0.01c0.52,-0.48 1.08,-0.9 1.67,-1.28 1.44,-0.93 3.08,-1.56 4.82,-1.83l0.02 -0 0.09 -0.01 0.07 -0.01 0.05 -0.01 0.11 -0.01 0.11 -0.01 0.04 -0 0.07 -0.01 0.09 -0.01 0.02 -0 0.11 -0.01 0.02 -0 0.09 -0.01 0.07 -0.01 0.05 -0 0.11 -0.01 0 0 0.11 -0.01 0.04 -0 0.07 -0 0.09 -0 0.02 -0 0.11 -0 0.02 -0 0.09 -0 0.07 -0 0.05 0 0.12 -0 0.11 0 0.05 0 0.07 0 0.09 0 0.02 0 0.12 0 0.02 0 0.09 0 0.07 0 0.05 0 0.11 0.01 0 0 0.11 0.01 0.05 0 0.07 0.01 0.09 0.01 0.02 0 0.11 0.01 0.02 0 0.09 0.01 0.07 0.01 0.04 0 0.11 0.01 0.11 0.01 0.04 0.01 0.07 0.01 0.09 0.01c1.75,0.27 3.4,0.9 4.85,1.83 0.67,0.43 1.3,0.93 1.88,1.49l0.01 0.01 0.07 0.07 0.13 0.12c0.91,0.91 1.67,1.95 2.27,3.1l21.43 0c0.46,-0.89 1.04,-1.73 1.7,-2.48l0.06 -0.07 0.01 -0.01 0.07 -0.08 0.02 -0.03 0.04 -0.05c0.73,-0.8 1.56,-1.5 2.46,-2.09 1.49,-0.96 3.19,-1.6 5.01,-1.85l0.04 -0.01 0.11 -0.01 0 0 0.11 -0.01 0.05 -0 0.16 -0.02 0.02 -0 0.11 -0.01 0.02 -0 0.09 -0.01 0.07 -0.01 0.05 -0 0.11 -0.01 0.11 -0.01 0.05 -0 0.07 -0 0.09 -0 0.02 -0 0.11 -0 0.02 -0 0.09 -0 0.07 -0 0.05 0 0.12 -0 0.12 0 0.05 0 0.07 0 0.09 0 0.02 0 0.11 0 0.02 0 0.09 0 0.07 0 0.05 0 0.11 0.01 0 0 0.11 0.01 0.04 0 0.07 0.01 0.09 0.01 0.02 0 0.11 0.01 0.02 0c1.99,0.2 3.85,0.87 5.47,1.91 0.91,0.58 1.73,1.28 2.47,2.09l0.04 0.05 0.02 0.03 0.07 0.08 0.01 0.01 0.06 0.07c0.66,0.75 1.23,1.59 1.7,2.48l19.06 0 0 -2.26 0 -0.03 0 -15.01 0 -0.03 0 -2.17c0,-1.59 -0.14,-3.19 -0.41,-4.75l-39.51 0 0 12.67c0,0.54 -0.22,1.03 -0.58,1.38 -0.35,0.36 -0.85,0.58 -1.39,0.58l-6.5 0 -0.03 0 -0.03 0zm47.06 -18.54c-0.34,-1.05 -0.74,-2.09 -1.2,-3.09l-37.35 0 0 3.09 38.55 0zm-3.75 -7.01l-9.88 -15.16c-0.43,-0.65 -0.99,-1.17 -1.65,-1.52 -0.66,-0.35 -1.4,-0.55 -2.17,-0.55l-21.1 0 0 17.23 34.8 0zm-29.2 17.13c-0.1,0 -0.2,0.04 -0.26,0.11 -0.07,0.06 -0.11,0.16 -0.11,0.26l0 4.33c0,0.1 0.04,0.19 0.11,0.26 0.07,0.07 0.16,0.11 0.26,0.11 0.1,0 0.2,-0.04 0.27,-0.11 0.06,-0.06 0.11,-0.16 0.11,-0.26l0 -4.33c0,-0.1 -0.04,-0.2 -0.11,-0.26 -0.07,-0.07 -0.16,-0.11 -0.27,-0.11zm0 8.99c-1.18,0 -2.26,-0.48 -3.03,-1.26 -0.78,-0.78 -1.26,-1.85 -1.26,-3.03l0 -4.33c0,-1.18 0.48,-2.25 1.26,-3.03 0.78,-0.78 1.85,-1.26 3.03,-1.26 1.18,0 2.26,0.48 3.03,1.26 0.78,0.78 1.26,1.85 1.26,3.03l0 4.33c0,1.18 -0.48,2.25 -1.26,3.03 -0.77,0.78 -1.85,1.26 -3.03,1.26zm38.24 -5.6l0 9.71c0.2,-0.16 0.37,-0.34 0.53,-0.54 0.41,-0.52 0.65,-1.19 0.65,-1.91l0 -4.82c0,-0.72 -0.24,-1.38 -0.65,-1.91 -0.15,-0.2 -0.33,-0.38 -0.53,-0.54zm-34.09 17.02c-0.93,0 -1.78,0.38 -2.39,0.99 -0.61,0.61 -0.99,1.45 -0.99,2.38 0,0.93 0.38,1.77 0.99,2.38 0.61,0.61 1.46,0.99 2.39,0.99 0.93,0 1.77,-0.38 2.38,-0.99 0.61,-0.61 0.99,-1.45 0.99,-2.38 0,-0.93 -0.38,-1.77 -0.99,-2.38 -0.61,-0.61 -1.46,-0.99 -2.38,-0.99zm0 9.75c-1.76,0 -3.36,-0.72 -4.51,-1.87 -1.16,-1.16 -1.87,-2.75 -1.87,-4.51 0,-1.76 0.72,-3.36 1.87,-4.51 1.16,-1.16 2.76,-1.87 4.51,-1.87 1.76,0 3.36,0.72 4.51,1.87 1.15,1.15 1.87,2.75 1.87,4.51 0,1.76 -0.72,3.35 -1.87,4.51 -1.16,1.16 -2.75,1.87 -4.51,1.87zm-43.67 -9.75c-0.93,0 -1.77,0.38 -2.38,0.99 -0.61,0.61 -0.99,1.45 -0.99,2.38 0,0.93 0.38,1.77 0.99,2.38 0.61,0.61 1.46,0.99 2.39,0.99 0.93,0 1.78,-0.38 2.39,-0.99 0.61,-0.61 0.99,-1.45 0.99,-2.38 0,-0.93 -0.38,-1.78 -0.99,-2.38 -0.61,-0.61 -1.46,-0.99 -2.39,-0.99zm0 9.75c-1.76,0 -3.35,-0.72 -4.51,-1.87 -1.15,-1.16 -1.87,-2.75 -1.87,-4.51 0,-1.76 0.72,-3.36 1.87,-4.51 1.15,-1.16 2.75,-1.87 4.51,-1.87 1.76,0 3.36,0.72 4.51,1.87 1.16,1.15 1.87,2.75 1.87,4.51 0,1.76 -0.72,3.36 -1.87,4.51 -1.16,1.15 -2.75,1.87 -4.51,1.87zm-33.66 -9.75c-0.93,0 -1.78,0.38 -2.39,0.99 -0.61,0.61 -0.99,1.45 -0.99,2.38 0,0.93 0.38,1.77 0.99,2.38 0.61,0.61 1.46,0.99 2.39,0.99 0.93,0 1.77,-0.38 2.38,-0.99 0.61,-0.61 0.99,-1.45 0.99,-2.38 0,-0.93 -0.38,-1.78 -0.99,-2.39 -0.61,-0.61 -1.45,-0.99 -2.38,-0.99zm0 9.75c-1.76,0 -3.36,-0.72 -4.51,-1.87 -1.16,-1.16 -1.87,-2.75 -1.87,-4.51 0,-1.76 0.72,-3.36 1.87,-4.51 1.15,-1.15 2.75,-1.87 4.51,-1.87 1.76,0 3.35,0.72 4.51,1.87 1.15,1.16 1.87,2.75 1.87,4.51 0,1.76 -0.72,3.35 -1.87,4.51 -1.15,1.16 -2.75,1.87 -4.5,1.87z"/>
 </g>
</svg>
