<?xml version="1.0" encoding="UTF-8"?>
<!DOCTYPE svg PUBLIC "-//W3C//DTD SVG 1.1//EN" "http://www.w3.org/Graphics/SVG/1.1/DTD/svg11.dtd">
<!-- Creator: CorelDRAW 2020 (64-Bit Оценочная версия) -->
<svg xmlns="http://www.w3.org/2000/svg" xml:space="preserve" width="12.4718mm" height="12.4229mm" version="1.1" style="shape-rendering:geometricPrecision; text-rendering:geometricPrecision; image-rendering:optimizeQuality; fill-rule:evenodd; clip-rule:evenodd"
viewBox="0 0 119.08 118.62"
 xmlns:xlink="http://www.w3.org/1999/xlink"
 xmlns:xodm="http://www.corel.com/coreldraw/odm/2003">
 <defs>
  <style type="text/css">
   <![CDATA[
    .fil0 {fill:#FEFEFE}
   ]]>
  </style>
 </defs>
 <g id="Слой_x0020_1">
  <metadata id="CorelCorpID_0Corel-Layer"/>
  <path class="fil0" d="M18.3 68.19c2.11,-0.49 4.88,-2.27 7.12,-2.46l0 27.51 -7.12 0 0 -25.05zm-14.49 10.32c0,-1.34 3.48,-4.2 4.56,-5.02 2.13,-1.61 3.9,-2.34 6.25,-3.58l0 23.33 -10.81 0 0 -14.74zm60.37 -17.5c7.67,5.16 3.67,4.9 10.54,1.45 5.69,-2.86 7.06,-0.41 7.45,-5.33 0.11,-1.37 0.39,-2.69 0.5,-3.92 4.1,0 3.76,-0.87 4.16,2.72 0.62,5.61 -0.22,3.23 7.6,6.4 4.95,2 2.98,4.9 10.35,-1.51l2.76 2.64c-0.58,1.82 -3.74,4.12 -3.74,5.95 0,1.01 2.41,3.68 3.78,8.26 0.59,1.97 0.13,3.1 2.29,3.6 0.82,0.19 4.46,0.67 5.47,0.67l0 3.93c-1.61,0 -6.2,0.4 -6.94,1.41 -0.51,0.7 -0.99,4.62 -3.7,9.08 -1.71,2.81 -1.17,2.39 0.99,5.31 0.62,0.84 1.53,1.66 1.79,2.63l-2.64 2.76 -2.8 -2.23c-3.79,-2.84 -2.39,-2.04 -6.92,0.38 -6.43,3.44 -8.52,-0.3 -8.52,9.41l-3.93 0c-0.68,-8.15 -1.14,-6.85 -4.27,-7.77 -4.93,-1.46 -7.12,-3.77 -8.75,-3.77 -0.63,0 -4.58,3.38 -5.4,3.93l-2.76 -2.89c0.99,-1.09 3.74,-4.39 3.74,-5.46 0,-2.29 -2.42,-3.17 -3.74,-8.79 -0.89,-3.77 -0.89,-3.23 -5.13,-3.72 -1.09,-0.13 -1.53,-0.27 -2.68,-0.27l0 -3.93 5.52 -0.62c3.08,-0.6 1.28,-3.79 5.24,-9.99 1.46,-2.28 1.58,-1.79 -0.83,-4.97l-1.51 -1.93c-0.21,-0.27 -0.38,-0.46 -0.56,-0.67l2.64 -2.76zm-2.89 8.66l-2 3.89c-0.52,1.29 -1.08,2.95 -1.44,4.46 -1.59,0 -3.21,0.25 -4.5,0.41 -3.97,0.5 -3.12,0.46 -3.12,9.66 0,2 4.89,1.58 7.61,2.21 0.22,0.93 0.66,2.05 0.74,2.95l-29.48 0 0 -28.98c0,-0.75 3.04,-3.5 3.68,-3.93 2.68,1.8 8.12,9.09 10.07,9.09 1.17,0 4.6,-3.98 5.59,-4.97 1.31,-1.31 4.35,-4.04 5.22,-5.34 0.93,0.62 1.57,1.46 2.4,2.27 2.65,2.6 -0.48,0.57 2.24,4.15l2.98 4.14zm-18.67 -4.91c-2.06,-1.38 -4.78,-4.86 -6.07,-6.21 -2.28,-2.36 -1.79,-0.72 -1.79,-5.58 4.07,2.15 9.52,2.75 13.83,1.06 1.07,-0.42 2.66,-1.36 3.36,-1.55 0,4.25 0.69,2.63 -3.75,7.06 -1,1 -4.56,4.94 -5.59,5.22zm-16.21 -34.39l0 -1.23 32.91 0c0,8.13 -2.58,15.55 -8.94,19.8 -6.24,4.17 -14.01,2.48 -18.54,-3.13 -0.47,-0.58 -0.64,-0.65 -1.12,-1.33 -2.38,-3.43 -4.32,-8.42 -4.32,-14.1zm-3.44 -8.35c0,-7.08 5.3,-13.8 11.79,-16.7 7.85,-3.51 16.28,-1.48 22.29,4.48 4.67,4.62 5.22,9.3 5.22,15.66 -3.09,-0.26 -0.91,0 -2.95,0 -11.84,0 -24.1,-0.26 -35.86,0 -0.2,-0.85 -0.49,-2.44 -0.49,-3.44zm-3.44 -0.98l0 4.42c-1.62,0 -2.7,-0.14 -2.7,1.97 0,2.32 2.41,1.72 5.9,1.72 0,7.16 1.2,11.96 5.06,17.54 3.6,5.21 3.05,0.3 3.05,9.72 0,0.79 -2.4,2.76 -3.01,3.38 -1.96,1.96 -1.41,1.41 -4.27,2.36 -1.75,0.58 -3.17,1.14 -4.83,1.8 -4.77,1.92 -8.91,3.69 -13.06,6.84 -1.26,0.96 -2.51,1.92 -3.48,3.15 -0.83,1.06 -2.06,2.87 -2.06,4.57 0,20.33 -1.41,18.42 5.4,18.42 8.73,0 53.49,0.37 54.78,-0.25 0.2,0.87 0.61,1.26 0.98,1.97l-1.09 1.37c-3.74,4.83 -4.28,4.2 -0.2,8.27 2.01,2.01 2.32,3.13 4.24,3.13 0.76,0 5.13,-3.93 5.4,-3.93 1.02,0 1.22,0.48 2.05,0.9 1.34,0.68 5.15,2.17 6.55,2.29 0,1.55 0.34,3.34 0.51,4.9 0.4,3.78 1.87,2.96 8.58,2.96 2.14,0 2.54,-0.9 2.82,-2.83 0.24,-1.63 0.5,-3.54 0.62,-5.03 3.66,-0.3 6.5,-2.52 7.62,-2.98 1.17,-0.48 1.57,0.34 3.3,1.64 4.49,3.37 3.43,2.56 6.95,-0.94 2.04,-2.03 3.26,-2.43 3.26,-4.36 0,-0.78 -3.93,-5.22 -3.93,-5.4 0,-0.83 1.08,-2.41 1.79,-4.1 0.63,-1.49 1.02,-2.86 1.4,-4.49 1.37,0 3.39,-0.36 4.87,-0.53 3.83,-0.44 2.99,-1.88 2.99,-8.56 0,-2.07 -0.98,-2.46 -2.74,-2.67 -1.61,-0.19 -3.56,-0.53 -5.12,-0.53 -0.03,-1.23 -0.82,-3.51 -1.23,-4.42 -0.26,-0.58 -1.97,-3.62 -1.97,-3.93 0,-1.24 3.93,-3.86 3.93,-6.39 0,-0.63 -4.96,-5.46 -5.71,-6.09 -1.79,-1.5 -4.17,1.7 -7.06,3.64 -1.58,-0.83 -6.27,-3.15 -8.35,-3.19 -0.12,-1.39 -0.37,-3.04 -0.56,-4.59 -0.52,-4.08 -0.34,-3.27 -9.51,-3.27 -1.93,0 -1.91,3.98 -2.13,5.98 -0.16,1.5 0.3,1.53 -0.81,1.89l-2.13 0.58c-2,0.67 -3.78,1.46 -5.5,2.61 -1.89,-1 -3.3,-2.64 -5.1,-3.76 -1.99,-1.24 -3.74,2.04 -5.21,3.02 -0.69,-0.46 -4.18,-3.66 -4.18,-4.42 0,-8.6 -0.54,-4.43 2.7,-9.33 3.53,-5.34 4.67,-10.1 4.67,-16.95 3.71,0 6.14,0.64 6.14,-2.21 0,-1.68 -2.32,-1.47 -2.95,-1.47 0,-5.26 0.09,-8.18 -2.45,-13.02 -0.99,-1.89 -2.59,-3.95 -4.05,-5.53 -6.07,-6.55 -16.82,-8.81 -26.03,-5.14 -0.8,0.32 -1.2,0.48 -1.85,0.85 -0.53,0.31 -1.17,0.65 -1.72,0.98 -1.53,0.94 -2,1.48 -3.15,2.5 -0.24,0.22 -0.49,0.38 -0.68,0.55 -0.47,0.44 -0.26,0.29 -0.68,0.79 -3.14,3.7 -6.06,8.17 -6.06,13.59z"/>
 </g>
</svg>
